<?xml version="1.0" encoding="UTF-8"?>
<svg id="logo" xmlns="http://www.w3.org/2000/svg" viewBox="0 0 62.93 30">
  <g>
    <path d="M21.03,18.45c-.39,0-.71-.32-.71-.71v-1.04c0-1.11.9-2.02,2.02-2.02h1.38c1.12,0,2.03-.88,2.08-1.99.02-.55-.18-1.08-.56-1.49-.38-.41-.9-.65-1.44-.66-.39-.01-.77.08-1.1.27-.21.12-.48.12-.69,0-.22-.12-.35-.34-.37-.59-.1-2.28-1.98-4.07-4.26-4.07-1.73,0-3.28,1.04-3.95,2.64-.08.18-.23.33-.41.4-.19.07-.4.05-.57-.04-.17-.09-.36-.14-.55-.14-.46,0-.88.27-1.07.69-.08.18-.23.31-.41.37-.18.06-.38.05-.55-.03-.34-.17-.71-.26-1.1-.26-.67,0-1.29.26-1.76.74-.47.48-.71,1.11-.69,1.78.04,1.32,1.17,2.39,2.52,2.39h.94c1.07,0,1.94.83,2.01,1.88,0,.03,0,.05,0,.08v.05c0,.39-.32.71-.71.71s-.71-.32-.71-.71c0-.33-.27-.6-.6-.6h-.94c-2.11,0-3.88-1.69-3.94-3.76-.03-1.06.36-2.05,1.1-2.81s1.72-1.17,2.78-1.17c.38,0,.77.06,1.13.17.49-.58,1.21-.94,1.99-.94.17,0,.35.02.52.05,1-1.79,2.88-2.91,4.96-2.91,2.72,0,5,1.9,5.56,4.47.29-.07.6-.1.91-.09.93.03,1.79.43,2.44,1.11.64.69.98,1.58.94,2.51-.07,1.88-1.61,3.36-3.49,3.36h-1.38c-.33,0-.6.27-.6.6v1.04c0,.39-.32.71-.71.71Z" fill="#00f0e2"/>
    <path d="M11.07,17.85c.5,0,.9.4.9.9s-.4.9-.9.9-.9-.4-.9-.9.4-.9.9-.9M11.07,16.44c-1.28,0-2.32,1.04-2.32,2.32s1.04,2.32,2.32,2.32,2.32-1.04,2.32-2.32-1.04-2.32-2.32-2.32h0Z" fill="#00f0e2"/>
    <path d="M21.03,18.94c.5,0,.9.4.9.9s-.4.9-.9.9-.9-.4-.9-.9.4-.9.9-.9M21.03,17.53c-1.28,0-2.32,1.04-2.32,2.32s1.04,2.32,2.32,2.32,2.32-1.04,2.32-2.32-1.04-2.32-2.32-2.32h0Z" fill="#00f0e2"/>
    <path d="M16.05,21.74c.5,0,.9.4.9.9s-.4.9-.9.9-.9-.4-.9-.9.4-.9.9-.9M16.05,20.32c-1.28,0-2.32,1.04-2.32,2.32s1.04,2.32,2.32,2.32,2.32-1.04,2.32-2.32-1.04-2.32-2.32-2.32h0Z" fill="#00f0e2"/>
    <path d="M16.05,21.56c-.39,0-.71-.32-.71-.71v-6.98c0-.39.32-.71.71-.71s.71.32.71.71v6.98c0,.39-.32.71-.71.71Z" fill="#00f0e2"/>
    <path d="M17.02,14.98c-.56,0-1.08-.22-1.47-.61-.28-.28-.28-.73,0-1,.28-.28.73-.28,1,0,.12.12.29.19.47.19s.34-.07.47-.19c.26-.26.26-.68,0-.93-.28-.28-.28-.73,0-1s.73-.28,1,0c.81.81.81,2.13,0,2.94-.39.39-.91.61-1.47.61Z" fill="#00f0e2"/>
  </g>
  <g>
    <path d="M36.24,11.23c-.19,0-1.21.05-1.92.05l-.07,1.97c-.02.58-.11.65-.53.71-.31.04-1.05.13-1.35.13-.32,0-.46-.12-.47-.56-.02-1.22-.04-4.69-.04-4.79,0-.49.12-.64.58-.65.99-.03,3.43-.12,3.67-.12.17,0,.27.09.27.41,0,.35-.11.51-.31.54-.19.03-1.13.06-1.66.06l-.04,1.37c.62,0,1.71-.13,1.96-.13.19,0,.27.13.27.41,0,.32-.11.58-.34.58Z" fill="#fff"/>
    <path d="M39.12,13.37c0,.37-.14.46-.46.53-.35.08-.74.17-1.04.17-.27,0-.53-.09-.53-.59,0-1.54-.05-4.13-.05-4.75,0-.46.17-.64.57-.77.45-.15.84-.22,1.16-.22.38,0,.42.31.42.66,0,.41-.06,4.03-.07,4.97Z" fill="#fff"/>
    <path d="M44.75,13.22c0,.38-.09.65-.43.71-.39.07-.75.13-1.12.13-.26,0-.44-.11-.44-.56-.43.34-.98.54-1.67.54-.82,0-1.24-.66-1.24-1.65v-1.59c0-.3.14-.43.4-.48.26-.04.82-.12,1.12-.12.42,0,.57.13.57.62,0,.34-.04,1.12-.04,1.51,0,.45.19.59.46.59.13,0,.27-.04.39-.12,0-.5-.03-1.26-.03-1.88,0-.36.14-.49.5-.58.28-.07.81-.15,1.05-.15.5,0,.55.09.55.65,0,.42-.05,2.05-.05,2.36Z" fill="#fff"/>
    <path d="M48.61,8.53c-.07,0-.13,0-.23,0-.28,0-.48.13-.52.8-.02.27,0,.71,0,1.01.34-.03.44-.04.56-.04.26,0,.35.1.35.39,0,.25-.12.37-.36.39-.09,0-.18.02-.54.04-.03.99-.04,1.88-.04,2.33,0,.37-.14.46-.46.53-.35.08-.73.17-1.03.17-.27,0-.53-.09-.53-.59,0-.81-.02-1.5-.03-2.31-.13,0-.14,0-.22,0-.23,0-.34-.1-.34-.31,0-.3.11-.45.35-.46.08,0,.08,0,.19-.02v-.5c0-1.34.62-2.19,2.32-2.19.33,0,.49.05.62.1.16.05.2.12.2.35,0,.2-.12.31-.28.31Z" fill="#fff"/>
    <path d="M52.46,8.53c-.07,0-.13,0-.23,0-.28,0-.48.13-.52.8-.02.27,0,.71,0,1.01.34-.03.44-.04.56-.04.26,0,.35.1.35.39,0,.25-.12.37-.36.39-.09,0-.18.02-.54.04-.03.99-.04,1.88-.04,2.33,0,.37-.14.46-.46.53-.35.08-.73.17-1.03.17-.27,0-.53-.09-.53-.59,0-.81-.02-1.5-.03-2.31-.13,0-.14,0-.22,0-.23,0-.34-.1-.34-.31,0-.3.11-.45.35-.46.08,0,.08,0,.19-.02v-.5c0-1.34.62-2.19,2.32-2.19.33,0,.49.05.62.1.16.05.2.12.2.35,0,.2-.12.31-.28.31Z" fill="#fff"/>
    <path d="M57.98,13.44c-.06,1.61-.8,2.35-2.55,2.35-.22,0-.44,0-.64-.11-.14-.08-.16-.19-.16-.38s.14-.27.3-.27c.71,0,1.12-.19,1.12-1.34-.47.35-.92.42-1.56.42-.98,0-1.24-.62-1.28-1.46,0-.21-.09-1.39-.09-1.84,0-.3.14-.43.4-.48.26-.04.77-.12,1.07-.12.42,0,.57.1.57.62,0,.48-.05,1.35-.04,1.73.02.45.26.58.53.58.15,0,.29-.07.4-.13,0-.5-.03-1.67-.03-2.11,0-.41.11-.49.46-.58.28-.07.68-.12,1.02-.12.47,0,.54.16.54.91,0,.58-.04,1.63-.06,2.34Z" fill="#fff"/>
    <path d="M35.91,21.76c-.78.06-2.81.13-3.6.13-.22,0-.42-.04-.42-.47,0-1.11-.04-4.55-.04-4.87,0-.35.21-.61.47-.64.39-.04,1.24-.14,1.56-.14.34,0,.53.08.53.52,0,.29-.12,3.48-.14,4.64.93-.04,1.69-.22,1.83-.22.15,0,.29.02.29.42s-.13.59-.48.62Z" fill="#fff"/>
    <path d="M41.77,21.3c0,.37-.13.46-.45.53-.35.08-.63.14-.92.14-.27,0-.42-.15-.49-.39-.27.13-.59.3-1.24.3-1.15,0-2.04-.64-2.04-1.83,0-1.31,1.32-2.05,2.65-2.05.81,0,1.16.19,1.31.28.19-.12.58-.32.88-.32.26,0,.35.12.35.41,0,.35-.05,1.98-.05,2.93ZM39.74,18.69c-.11-.04-.17-.04-.27-.04-.38,0-.67.21-.67,1.14,0,1.04.28,1.27.58,1.27.19,0,.29-.04.39-.11,0-.74-.02-1.58-.02-2.27Z" fill="#fff"/>
    <path d="M44.66,21.9c-.73,0-1.32-.06-1.62-.11-.27-.04-.53-.09-.53-.59,0-1.01-.04-3.75-.04-4.68,0-.46.13-.63.53-.76.49-.16.88-.25,1.19-.25.38,0,.42.31.42.66,0,.28,0,1.04-.04,2.03.29-.12.57-.2,1.16-.2.9,0,1.97.57,1.97,1.81s-1.04,2.1-3.05,2.1ZM44.88,18.84c-.14,0-.21.04-.31.07-.03.71-.04,1.58-.06,2.29.67,0,1-.24,1-1.17,0-1.01-.24-1.19-.63-1.19Z" fill="#fff"/>
    <path d="M49.89,21.87c-.93,0-1.48-.1-1.59-.14-.15-.05-.27-.14-.27-.28,0-.27.14-.37.29-.37.12,0,.4.05.51.05.36,0,.58-.07.58-.35,0-.24-.3-.39-.6-.58-.4-.27-.64-.5-.64-.9,0-.82.96-1.27,2.24-1.27.82,0,1.19.07,1.28.1.23.06.28.15.28.35s-.12.32-.29.32c-.08,0-.25-.03-.35-.03-.35,0-.66.05-.66.37,0,.21.35.36.71.57.34.19.67.48.67.97,0,.78-.95,1.2-2.18,1.2Z" fill="#fff"/>
  </g>
</svg>