<svg width="1155" height="246" viewBox="0 0 1155 246" fill="none" xmlns="http://www.w3.org/2000/svg">
<path fill-rule="evenodd" clip-rule="evenodd" d="M313.436 211.135L324.305 160.044C330.275 160.743 338.053 161.396 348.876 161.396C374.164 161.396 394.804 154.491 409.145 142.255C423.506 130 431.451 112.48 431.451 91.4837C431.451 77.2425 427.649 65.2682 420.492 55.9461C413.334 46.6241 402.885 40.0392 389.738 36.4658C382.089 34.3819 373.525 33.3105 364.147 33.3105C354.214 33.3105 334.774 35.9759 323.053 37.9553L322.298 38.0794L285.399 211.142H313.43L313.436 211.135ZM347.663 135.618C343.855 135.618 340.466 135.559 337.349 135.416C334.6 135.285 332.063 135.089 329.63 134.802L345.443 60.6758C350.49 59.9572 357.583 59.0818 364.876 59.0818C369.375 59.0818 373.479 59.4476 377.191 60.1531C384.335 61.5119 390.015 64.1315 394.268 67.8029C400.697 73.3556 403.995 81.4561 403.995 91.7254C403.995 104.889 399.27 115.805 389.957 123.454C380.618 131.13 366.535 135.618 347.663 135.618Z" fill="black"/>
<path d="M560.218 211.135L597.465 36.42H569.422L532.181 211.135H560.225H560.218Z" fill="black"/>
<path fill-rule="evenodd" clip-rule="evenodd" d="M914.223 99.5122L927.789 36.42H955.858L931.262 150.957C929.074 160.991 927.163 172.384 927.163 179.099C927.163 181.85 927.525 183.953 928.247 185.331C928.596 186.004 929.022 186.475 929.506 186.782C929.984 187.089 930.59 187.272 931.378 187.272C932.398 187.272 933.663 186.801 935.154 185.802C936.632 184.815 938.226 183.378 939.878 181.621C943.111 178.185 946.461 173.625 949.437 169.085C949.417 168.516 949.411 167.942 949.411 167.354C949.411 148.618 956.104 129.393 967.721 114.838C979.345 100.277 995.945 90.3339 1015.75 90.3339C1029.47 90.3339 1040.45 95.1484 1047.99 103.399C1055.52 111.637 1059.54 123.193 1059.54 136.513C1059.54 168.334 1040.45 201.526 1010.62 211.077C1005.15 212.827 999.269 213.781 993.202 213.781C987.135 213.781 981.604 212.84 976.66 211.064C968.121 208.013 961.39 202.493 956.756 195.176C951.018 202.434 944.615 207.967 937.464 211.037C933.333 212.821 928.893 213.781 924.349 213.781C919.805 213.781 915.765 212.847 912.332 210.998C905.058 207.072 900.837 199.187 900.262 188.114C893.866 198.619 885.231 206.981 874.181 211.064C869.431 212.814 864.267 213.768 858.652 213.768C853.399 213.768 848.584 212.814 844.266 211.044C835.224 207.346 828.466 200.147 824.51 190.982C818.488 200.938 811.93 207.595 804.54 211.024C800.578 212.867 796.318 213.768 791.994 213.768C787.669 213.768 783.829 212.808 780.589 210.985C773.657 207.085 769.675 199.442 768.933 189.65C762.969 199.285 754.985 207.131 744.562 211.057C739.915 212.808 734.81 213.768 729.207 213.768C723.979 213.768 719.126 212.827 714.75 211.05C709.303 208.842 705.037 205.223 701.764 200.709C695.943 206.504 689.127 210.73 681.827 212.997C673.695 215.519 664.769 215.61 656.43 212.161C647.982 208.66 641.263 201.983 636.984 193.014C634.796 188.421 632.588 182.967 630.465 177.708C629.871 176.232 629.277 174.768 628.697 173.344C627.406 170.195 626.115 167.112 624.779 164.14C621.758 164.767 618.854 165.191 616.111 165.44L606.346 211.253H577.405L614.839 35.6492H643.786L623.023 133.031C637.629 128.778 657.766 116.745 671.604 87.0349L699.008 100.113C686.223 127.57 668.525 144.405 651.189 154.138C652.441 156.98 653.603 159.776 654.694 162.441C655.417 164.211 656.101 165.897 656.753 167.51C658.805 172.58 660.548 176.904 662.329 180.628C663.904 183.927 665.724 185.233 667.092 185.795C668.577 186.409 670.746 186.645 673.592 185.763C679.33 183.979 686.9 177.688 690.644 165.629L693.387 153.472C694.458 145.469 696.478 138.185 699.041 132.822C711.297 107.175 735.784 89.8374 762.898 89.8374C771.721 89.8374 780.938 91.9736 788.992 95.2007C797.041 98.4278 804.031 102.785 808.355 107.306L808.781 107.75L808.645 108.351C807.787 112.153 806.709 116.791 805.528 121.88C803.611 130.124 801.423 139.557 799.435 148.579C797.835 155.869 796.376 162.866 795.311 168.706C794.246 174.579 793.607 179.197 793.607 181.778C793.607 183.724 794.007 185.116 794.614 185.991C795.182 186.814 795.989 187.252 797.086 187.252C798.635 187.252 800.468 186.396 802.585 184.417C804.689 182.451 806.954 179.491 809.355 175.578C814.151 167.752 819.385 156.287 824.936 141.805C835.165 110.735 861.434 90.3273 887.76 90.3273C899.843 90.3273 908.259 93.9464 914.248 99.4992L914.223 99.5122ZM772.947 140.91L778.078 119.195C773.296 116.34 767.868 114.407 760.943 114.407C748.899 114.407 738.295 121.135 730.66 131.163C723.018 141.19 718.442 154.413 718.442 167.125C718.442 173.566 719.978 178.792 722.773 182.385C725.541 185.946 729.627 188.01 735.01 188.01C743.077 188.01 750.784 183.888 757.386 175.905C763.995 167.909 769.456 156.098 772.947 140.916V140.91ZM907.969 127.962L909.285 121.566C904.425 117.764 897.81 114.903 889.193 114.903C877.647 114.903 867.462 121.442 860.124 131.307C852.785 141.177 848.377 154.275 848.377 167.125C848.377 173.821 849.92 179.047 852.624 182.581C855.303 186.076 859.207 188.016 864.222 188.016C873.413 188.016 882.391 182.098 890.103 171.502C897.803 160.926 904.115 145.855 907.969 127.968V127.962ZM981.778 181.686C984.754 185.567 989.375 188.003 996.1 188.003C1005.77 188.003 1014.62 181.601 1021.12 172.038C1027.6 162.493 1031.59 149.99 1031.59 138.238C1031.59 131.901 1030.16 126.368 1027.15 122.442C1024.18 118.561 1019.56 116.118 1012.83 116.118C1003.17 116.118 994.319 122.579 987.82 132.175C981.34 141.752 977.351 154.262 977.351 165.897C977.351 172.234 978.777 177.76 981.778 181.686Z" fill="black"/>
<path d="M1154.78 178.244L1154.14 179.197C1148.99 186.801 1142.01 195.281 1137.24 199.533C1133.34 203.022 1128.88 206.262 1123.94 208.771C1117.99 211.815 1111.36 213.775 1104.25 213.775C1098.22 213.775 1093 212.69 1088.61 210.678C1076.67 205.223 1071.13 193.105 1071.13 178.368C1071.13 172.534 1071.79 166.851 1072.53 162.389V162.35L1072.55 162.252C1072.81 160.69 1073.08 159.273 1073.34 158.058L1082.01 117.34H1062.83L1068.06 92.7901H1087.11L1097.28 45.6245H1125.33L1115.11 92.7901H1149.09L1143.86 117.34H1109.78L1101 159.018C1100.98 159.109 1100.96 159.194 1100.95 159.279V159.312L1100.94 159.325C1100.92 159.423 1100.9 159.515 1100.88 159.612H1100.88L1100.86 159.704C1099.72 165.564 1098.83 170.836 1098.83 175.186C1098.83 179.217 1099.66 182.32 1101.11 184.378C1102.53 186.39 1104.6 187.513 1107.41 187.513C1110.62 187.513 1113.54 186.351 1116.81 183.992C1120.11 181.614 1123.67 178.08 1128.17 173.429C1128.52 173.031 1130.72 170.333 1133.1 167.406L1135.01 165.054L1154.78 178.244Z" fill="black"/>
<path fill-rule="evenodd" clip-rule="evenodd" d="M489.461 90.3405C469.666 90.3405 453.059 100.277 441.435 114.844C429.818 129.399 423.125 148.618 423.125 167.36C423.125 188.323 432.897 204.825 450.394 211.077C455.331 212.847 460.856 213.781 466.917 213.781C472.977 213.781 478.837 212.834 484.298 211.09C514.155 201.559 533.259 168.353 533.259 136.52C533.259 123.2 529.244 111.643 521.712 103.406C514.168 95.1615 503.189 90.3405 489.461 90.3405ZM469.827 188.003C463.102 188.003 458.481 185.56 455.506 181.686C452.498 177.76 451.078 172.234 451.078 165.897C451.078 154.262 455.067 141.759 461.547 132.175C468.046 122.579 476.895 116.118 486.557 116.118C493.288 116.118 497.909 118.561 500.878 122.442C503.886 126.368 505.306 131.901 505.306 138.238C505.306 149.99 501.317 162.493 494.837 172.038C488.344 181.601 479.489 188.003 469.827 188.003Z" fill="black"/>
<path d="M126.633 52.3989C150.737 52.3989 170.276 40.89 170.276 26.693C170.276 12.496 150.737 0.987061 126.633 0.987061C102.53 0.987061 82.9902 12.496 82.9902 26.693C82.9902 40.89 102.53 52.3989 126.633 52.3989Z" fill="black"/>
<path d="M126.633 245.987C150.737 245.987 170.276 234.478 170.276 220.281C170.276 206.084 150.737 194.575 126.633 194.575C102.53 194.575 82.9902 206.084 82.9902 220.281C82.9902 234.478 102.53 245.987 126.633 245.987Z" fill="black"/>
<path d="M65.8044 87.9402C77.8561 66.8123 77.7812 43.9317 65.637 36.835C53.4928 29.7383 33.8781 41.1129 21.8264 62.2408C9.77472 83.3688 9.84969 106.249 21.9939 113.346C34.1381 120.443 53.7527 109.068 65.8044 87.9402Z" fill="black"/>
<path d="M231.458 184.734C243.51 163.606 243.432 140.724 231.285 133.626C219.138 126.527 199.521 137.9 187.469 159.028C175.417 180.156 175.495 203.038 187.642 210.137C199.789 217.235 219.406 205.862 231.458 184.734Z" fill="black"/>
<path d="M65.6377 210.143C77.785 203.045 77.8624 180.163 65.8107 159.035C53.759 137.907 34.1419 126.534 21.9946 133.632C9.84731 140.731 9.76983 163.613 21.8215 184.741C33.8732 205.869 53.4904 217.242 65.6377 210.143Z" fill="black"/>
<path d="M231.281 113.341C243.429 106.243 243.506 83.3607 231.454 62.2327C219.403 41.1048 199.785 29.7316 187.638 36.8301C175.491 43.9286 175.413 66.8107 187.465 87.9386C199.517 109.067 219.134 120.44 231.281 113.341Z" fill="black"/>
</svg>
