<?xml version="1.0" encoding="utf-8"?>
<!-- Generator: Adobe Illustrator 27.2.0, SVG Export Plug-In . SVG Version: 6.00 Build 0)  -->
<svg version="1.1" id="Ebene_1" xmlns="http://www.w3.org/2000/svg" xmlns:xlink="http://www.w3.org/1999/xlink" x="0px" y="0px"
	 viewBox="0 0 2906.2 3000" style="enable-background:new 0 0 2906.2 3000;" xml:space="preserve">
<style type="text/css">
	.st0{fill:#FFFFFF;}
</style>
<path class="st0" d="M2789.2,2230l-216.5-125.3V862.3c0-0.6-0.1-1.1-0.1-1.7l218.3-126.8c11.7-6.8,15.6-21.7,8.9-33.4
	c-6.8-11.7-21.8-15.7-33.4-8.9L2548.7,818c-0.9-0.6-1.8-1.3-2.7-1.8L1467.5,193.4c-0.4-0.2-0.8-0.4-1.2-0.6l-0.5-159.4
	c0-13.5-11-24.4-24.4-24.4c-13.5,0-24.5,11-24.4,24.5l0.5,158.2c-1.1,0.5-2.2,1-3.3,1.6L341.3,812.8L131.6,691.4
	c-11.7-6.7-26.6-2.7-33.3,9c-6.8,11.7-2.7,26.7,9,33.4L630,1036.4v895.7l-272.2,158v-594.4c0-13.5-10.9-24.4-24.4-24.4
	c-13.5,0-24.4,10.9-24.4,24.4v611.9c0,3.5,0.4,6.9,1.1,10.2l-200.7,116.5c-11.7,6.8-15.6,21.7-8.9,33.4l0,0
	c6.8,11.7,21.8,15.7,33.5,8.9l206.6-120l1073.6,619.8c3.5,2,7.2,3.5,11.1,4.7l0.6,185.2c0,13.5,11,24.4,24.4,24.4
	c13.5,0,24.5-11,24.4-24.5l-0.6-193.6l1072-618.9c2.3-1.3,4.4-2.8,6.4-4.4l212.4,123c11.7,6.7,26.6,2.7,33.3-9
	C2805,2251.8,2800.9,2236.8,2789.2,2230z M2523.8,2076.4l-272.2-157.6V1047l272.2-158V2076.4z M1044.3,1276.4l358,207.3l-358,207.9
	V1276.4z M1422.6,1932.3l-348.8-201.4l347.6-201.8L1422.6,1932.3z M1075.7,1238l344.2-198.7l1.2,398.7L1075.7,1238z M1471.5,1925.1
	l-1.2-402.1l348.4,201.7L1471.5,1925.1z M1468.8,1043.3l347.8,199.8L1470,1444.3L1468.8,1043.3z M1419.4,875.7L934,1156
	l-223.3-129.3L1418.7,618L1419.4,875.7z M932.3,1813.1l490.8,283.3l0.8,258.6l-714.5-412.5L932.3,1813.1z M1472,2088.7l488.4-282
	l223.3,129.3l-710.9,410.4L1472,2088.7z M1979.1,1761.1v-232.3c0-39.1-31.8-71-70.9-71s-71,31.8-71,71v150.1l-337.4-195.3
	l702.9-408.2v815.1L1979.1,1761.1z M2500.2,846.1l-271.4,157.6l-370.4-213.8c-11.4-6.6-25.9-3-32.9,8.1l0,0
	c-7.4,11.7-3.6,27.3,8.4,34.3L2180,1032l-221.9,128.9l-489.8-281.6l-1.9-630L2500.2,846.1z M1417.5,247.9l0.9,313.7L661.9,998.5
	L390.1,841.1L1417.5,247.9z M678.8,1064.8l223.6,129.4v579.7l-223.6,129.8V1064.8z M389.2,2128.5l271.4-157.6l763.4,440.7l0.9,314.8
	L389.2,2128.5z M1473.8,2716.5l-0.9-313.7l759.5-438.5l271.8,157.4L1473.8,2716.5z"/>
</svg>
