<?xml version="1.0" encoding="utf-8"?>
<!-- Generator: Adobe Illustrator 27.2.0, SVG Export Plug-In . SVG Version: 6.00 Build 0)  -->
<svg version="1.1" id="Ebene_1" xmlns="http://www.w3.org/2000/svg" xmlns:xlink="http://www.w3.org/1999/xlink" x="0px" y="0px"
	 viewBox="0 0 2802.9 3000" style="enable-background:new 0 0 2802.9 3000;" xml:space="preserve">
<style type="text/css">
	.st0{fill:#FFFFFF;}
</style>
<path class="st0" d="M2451.6,1756.8l-169.9-98.4v-975c0-0.4-0.1-0.9-0.1-1.3l171.3-99.5c9.1-5.3,12.3-17,7-26.2
	c-5.3-9.2-17.1-12.3-26.3-7L2263,648.7c-0.7-0.5-1.4-1-2.2-1.4l-846.4-488.7c-0.3-0.2-0.6-0.3-0.9-0.5L1413.1,33
	c0-10.6-8.6-19.1-19.2-19.1c-10.6,0-19.2,8.6-19.2,19.2l0.4,124.1c-0.9,0.4-1.7,0.8-2.6,1.3L530.6,644.6l-164.5-95.3
	c-9.2-5.2-20.9-2.1-26.1,7.1l0,0c-5.3,9.2-2.1,21,7.1,26.2l410.2,237.5V1523l-213.6,124v-466.4c0-10.6-8.6-19.2-19.2-19.2
	c-10.6,0-19.2,8.6-19.2,19.2v480.2c0,2.7,0.4,5.4,0.9,8l-157.5,91.4c-9.1,5.3-12.3,17-7,26.2c5.3,9.2,17.1,12.3,26.3,7l162.1-94.2
	l842.5,486.4c2.8,1.6,5.7,2.8,8.7,3.7l0.4,145.4c0,10.6,8.6,19.1,19.2,19.1c10.6,0,19.2-8.6,19.2-19.2l-0.5-151.9l841.3-485.7
	c1.8-1,3.5-2.2,5.1-3.5l166.7,96.5c9.2,5.2,20.9,2.1,26.1-7.1C2464,1773.9,2460.9,1762.1,2451.6,1756.8z M2243.4,1636.2
	l-213.6-123.7V828.4l213.6-124V1636.2z M1082.3,1008.4l281,162.7l-281,163.1V1008.4z M1379.2,1523.2l-273.7-158l272.8-158.4
	L1379.2,1523.2z M1107,978.3l270.1-156l0.9,312.9L1107,978.3z M1417.5,1517.5l-0.9-315.6l273.4,158.3L1417.5,1517.5z M1415.5,825.5
	l272.9,156.8l-272,157.9L1415.5,825.5z M1376.7,694l-381,220L820.5,812.5l555.6-320.8L1376.7,694z M994.4,1429.6l385.1,222.4
	l0.6,203l-560.7-323.7L994.4,1429.6z M1417.9,1645.9l383.3-221.3l175.2,101.4l-557.9,322.1L1417.9,1645.9z M1815.9,1388.8v-182.3
	c0-30.7-25-55.7-55.7-55.7c-30.7,0-55.7,25-55.7,55.7v117.8L1439.8,1171l551.6-320.3v639.7L1815.9,1388.8z M2224.9,670.8l-213,123.7
	l-290.7-167.8c-8.9-5.1-20.3-2.3-25.8,6.3c-5.8,9.2-2.8,21.4,6.6,26.9l271.6,156.8l-174.2,101.1l-384.4-221l-1.5-494.4L2224.9,670.8
	z M1375.2,201.3l0.7,246.2L782.2,790.3L568.9,666.8L1375.2,201.3z M795.5,842.3L971,943.9v455l-175.5,101.9V842.3z M568.2,1677.1
	l213-123.7l599.1,345.9l0.7,247.1L568.2,1677.1z M1419.4,2138.6l-0.7-246.2l596.1-344.1l213.3,123.5L1419.4,2138.6z"/>
<g>
	<g>
		<path class="st0" d="M94.7,2733.5c11.1-10.7,24.3-19,39.6-24.9c15.3-5.9,31.8-8.9,49.6-8.9c17.5,0,33.7,2.9,48.7,8.7
			c15,5.8,28.8,14.9,41.6,27.4l27.6-27.6c-14.2-16-31.6-28-52.1-36c-20.5-8-43-12-67.6-12c-24.3,0-46.6,3.9-66.7,11.8
			c-20.2,7.9-37.8,19-52.7,33.4c-15,14.4-26.6,31.2-34.9,50.5c-8.3,19.3-12.5,40.5-12.5,63.6c0,23.1,4.1,44.4,12.5,63.6
			c8.3,19.3,19.9,36.1,34.7,50.5c14.8,14.4,32.3,25.5,52.5,33.4c20.2,7.9,42.3,11.8,66.3,11.8c21.9,0,43.2-3.3,63.9-10
			c20.6-6.7,38.6-16.5,54.1-29.6v-121.5h-42.7v101.3c-8,5.3-16.4,9.4-25.1,12.4c-15.3,5.2-31.2,7.8-47.8,7.8
			c-17.8,0-34.3-3-49.4-8.9c-15.1-5.9-28.3-14.3-39.4-25.1c-11.1-10.8-19.7-23.6-25.8-38.3c-6.1-14.7-9.1-30.5-9.1-47.4
			c0-17.2,3-33.1,9.1-47.8C74.9,2756.9,83.5,2744.2,94.7,2733.5z"/>
		<path class="st0" d="M643.1,2705.3c-14.8-14.4-32.3-25.5-52.5-33.4c-20.2-7.9-42.1-11.8-65.9-11.8c-24,0-46.1,4-66.3,12
			c-20.2,8-37.7,19.2-52.5,33.6c-14.8,14.4-26.4,31.2-34.7,50.5c-8.3,19.3-12.5,40.3-12.5,63.2c0,22.8,4.1,43.9,12.5,63.2
			c8.3,19.3,19.9,36.1,34.7,50.5c14.8,14.4,32.4,25.6,52.7,33.6c20.3,8,42.3,12,66.1,12c23.7,0,45.7-3.9,65.9-11.8
			c20.2-7.9,37.7-19,52.5-33.4c14.8-14.4,26.3-31.2,34.5-50.5c8.2-19.3,12.2-40.5,12.2-63.6c0-22.8-4.1-44-12.2-63.4
			C669.4,2736.6,657.9,2719.7,643.1,2705.3z M636.2,2867c-6.1,14.5-14.5,27.2-25.4,38c-10.8,10.8-23.6,19.2-38.3,25.1
			c-14.7,5.9-30.8,8.9-48.3,8.9c-17.2,0-33.1-3-47.8-8.9c-14.7-5.9-27.5-14.3-38.5-25.1c-11-10.8-19.5-23.5-25.6-38
			c-6.1-14.5-9.1-30.4-9.1-47.6c0-17.2,3-33,9.1-47.4c6.1-14.4,14.6-27.1,25.6-38c11-11,23.8-19.4,38.5-25.4
			c14.7-5.9,30.6-8.9,47.8-8.9c17.5,0,33.6,3,48.3,8.9c14.7,5.9,27.4,14.4,38.3,25.4c10.8,11,19.3,23.7,25.4,38
			c6.1,14.4,9.1,30.2,9.1,47.4C645.3,2836.6,642.3,2852.5,636.2,2867z"/>
		<path class="st0" d="M932.1,2825.2c-11.1-6.2-23.4-11.3-36.9-15.1c-13.5-3.9-26.9-7.3-40.3-10.5c-13.3-3.1-25.6-6.6-36.7-10.5
			c-11.1-3.8-20.2-9-27.1-15.6c-7-6.5-10.5-15.3-10.5-26.3c0-9.2,2.6-17.5,7.8-24.9c5.2-7.4,13.4-13.3,24.7-17.8
			c11.3-4.5,25.7-6.7,43.2-6.7c13.9,0,28.3,2,43.2,6c14.8,4,28.9,10.5,42.3,19.4l14.7-35.6c-13.1-8.9-28.5-15.7-46.3-20.5
			c-17.8-4.7-35.8-7.1-53.8-7.1c-27.3,0-49.8,4.1-67.4,12.2c-17.7,8.2-30.7,19-39.2,32.5c-8.5,13.5-12.7,28.3-12.7,44.3
			c0,16.6,3.4,30.2,10.2,40.7c6.8,10.5,15.8,18.9,26.9,25.1c11.1,6.2,23.4,11.3,36.9,15.4c13.5,4,26.9,7.5,40.3,10.5
			c13.3,3,25.6,6.5,36.7,10.5c11.1,4,20.2,9.3,27.1,15.8c7,6.5,10.5,15.1,10.5,25.8c0,9.2-2.7,17.4-8,24.7
			c-5.3,7.3-13.6,13-24.9,17.1c-11.3,4.2-26,6.2-44,6.2c-19.9,0-39-3.4-57.4-10.2c-18.4-6.8-33.5-15.4-45.4-25.8l-16.5,34.7
			c12.5,11.6,29.5,21,51.2,28.3c21.7,7.3,44.3,10.9,68.1,10.9c27.3,0,49.9-4.1,67.9-12.2c17.9-8.2,31.2-19,39.8-32.5
			c8.6-13.5,12.9-28.1,12.9-43.8c0-16.3-3.4-29.7-10.2-40C952.2,2839.7,943.2,2831.4,932.1,2825.2z"/>
		<path class="st0" d="M1208.4,2825.2c-11.1-6.2-23.4-11.3-36.9-15.1c-13.5-3.9-26.9-7.3-40.3-10.5c-13.3-3.1-25.6-6.6-36.7-10.5
			c-11.1-3.8-20.2-9-27.1-15.6c-7-6.5-10.5-15.3-10.5-26.3c0-9.2,2.6-17.5,7.8-24.9c5.2-7.4,13.4-13.3,24.7-17.8
			c11.3-4.5,25.7-6.7,43.2-6.7c13.9,0,28.3,2,43.2,6c14.8,4,28.9,10.5,42.3,19.4l14.7-35.6c-13.1-8.9-28.5-15.7-46.3-20.5
			c-17.8-4.7-35.8-7.1-53.8-7.1c-27.3,0-49.8,4.1-67.4,12.2c-17.7,8.2-30.7,19-39.2,32.5c-8.5,13.5-12.7,28.3-12.7,44.3
			c0,16.6,3.4,30.2,10.2,40.7c6.8,10.5,15.8,18.9,26.9,25.1c11.1,6.2,23.4,11.3,36.9,15.4c13.5,4,26.9,7.5,40.3,10.5
			c13.3,3,25.6,6.5,36.7,10.5c11.1,4,20.2,9.3,27.1,15.8c7,6.5,10.5,15.1,10.5,25.8c0,9.2-2.7,17.4-8,24.7
			c-5.3,7.3-13.6,13-24.9,17.1c-11.3,4.2-26,6.2-44,6.2c-19.9,0-39-3.4-57.4-10.2c-18.4-6.8-33.5-15.4-45.4-25.8l-16.5,34.7
			c12.5,11.6,29.5,21,51.2,28.3c21.7,7.3,44.3,10.9,68.1,10.9c27.3,0,49.9-4.1,67.9-12.2c17.9-8.2,31.2-19,39.8-32.5
			c8.6-13.5,12.9-28.1,12.9-43.8c0-16.3-3.4-29.7-10.2-40C1228.5,2839.7,1219.5,2831.4,1208.4,2825.2z"/>
		<path class="st0" d="M1404.4,2663.7l-141.1,311.5h45.8l34.2-77.9H1509l34.2,77.9h46.7l-141.5-311.5H1404.4z M1359,2861.7
			l67.2-152.8l67.2,152.8H1359z"/>
		<polygon class="st0" points="1930.8,2663.7 1802.6,2882.5 1672.7,2663.7 1636.2,2663.7 1636.2,2975.2 1678.9,2975.2 
			1678.9,2749.4 1791.5,2937.3 1812,2937.3 1924.6,2748 1925,2975.2 1967.7,2975.2 1967.3,2663.7 		"/>
		<polygon class="st0" points="2105.7,2835.9 2261.8,2835.9 2261.8,2798.1 2105.7,2798.1 2105.7,2702.4 2281,2702.4 2281,2663.7 
			2061.2,2663.7 2061.2,2975.2 2287.2,2975.2 2287.2,2936.4 2105.7,2936.4 		"/>
		<path class="st0" d="M2616,2975.2l-73.9-104.3c2.9-1.1,5.8-2.2,8.5-3.4c19.3-8.6,34.1-21,44.5-37.2c10.4-16.2,15.6-35.5,15.6-58.1
			c0-22.5-5.2-42-15.6-58.3c-10.4-16.3-25.2-28.8-44.5-37.4c-19.3-8.6-42.6-12.9-69.9-12.9h-121.5v311.5h44.5v-94.8h77
			c6.8,0,13.4-0.3,19.8-0.8l67,95.6H2616z M2479.4,2842.6h-75.6v-140.2h75.6c28.5,0,50.1,6.1,64.7,18.2c14.7,12.2,22,29.4,22,51.6
			s-7.3,39.5-22,51.8C2529.5,2836.4,2507.9,2842.6,2479.4,2842.6z"/>
	</g>
	<path class="st0" d="M2755.7,2977.8c-8.3,0-15.4-2.9-21.4-8.7c-5.9-5.8-8.9-13.1-8.9-22c0-8.9,3-16.2,8.9-21.8
		c5.9-5.6,13.1-8.5,21.4-8.5c8,0,14.9,2.8,20.7,8.5c5.8,5.6,8.7,12.9,8.7,21.8c0,8.9-2.9,16.2-8.7,22
		C2770.6,2974.9,2763.7,2977.8,2755.7,2977.8z"/>
</g>
</svg>
